<svg aria-hidden="true" style="position: absolute; width: 0; height: 0; overflow: hidden;" version="1.1"
    xmlns="http://www.w3.org/2000/svg"
    xmlns:xlink="http://www.w3.org/1999/xlink">
    <defs>
        <symbol id="icon-ice-cream" viewBox="0 0 17 32">
            <path d="M15.959 14.685c1.642-4.393-1.758-6.797-4.012-8.377-0.431-0.323-0.862-0.625-1.211-0.901-0.61-0.509-1.069-1.178-1.315-1.943l-0.008-0.030c-0.12-0.37-0.19-0.797-0.19-1.239 0-0.401 0.057-0.788 0.163-1.155l-0.007 0.029c0.011-0.036 0.017-0.078 0.017-0.121 0-0.134-0.058-0.254-0.15-0.336l-0-0c-0.083-0.076-0.194-0.122-0.315-0.122-0.057 0-0.112 0.010-0.162 0.029l0.003-0.001c-0.801 0.317-1.492 0.731-2.102 1.238l0.012-0.010c-0.595 0.454-1.075 1.027-1.411 1.686l-0.013 0.028c-0.321 0.628-0.511 1.37-0.513 2.155v0.001c-0.426 0.333-0.794 0.712-1.105 1.135l-0.011 0.016c-0.517 0.688-0.828 1.556-0.828 2.497 0 0.070 0.002 0.14 0.005 0.21l-0-0.010c-0.673 0.61-1.188 1.383-1.482 2.258l-0.011 0.038c-0.166 0.49-0.262 1.054-0.262 1.641 0 0.383 0.041 0.756 0.118 1.116l-0.006-0.035c-0.274 0.163-0.487 0.411-0.605 0.705-0.065 0.157-0.102 0.339-0.102 0.531 0 0.14 0.020 0.275 0.058 0.402l-0.003-0.010c0.087 0.305 0.273 0.573 0.53 0.762s0.569 0.292 0.89 0.29h0.030v2.497c0 0.254 0.103 0.497 0.284 0.677 0.182 0.179 0.429 0.28 0.686 0.28h0.754l1.23 10.493c0.025 0.234 0.137 0.45 0.315 0.606s0.407 0.243 0.646 0.243h5.111c0.239-0.001 0.469-0.087 0.647-0.244s0.291-0.372 0.319-0.606l1.228-10.493h0.754c0.257 0 0.503-0.101 0.686-0.28 0.175-0.172 0.284-0.411 0.284-0.676v-2.498h0.030c0.001 0 0.001 0 0.002 0 0.404 0 0.77-0.162 1.037-0.424l-0 0c0.275-0.271 0.43-0.64 0.43-1.025 0-0.005 0-0.010 0-0.016 0-0.399-0.165-0.759-0.431-1.016l-0-0-0.013 0.004zM4.897 6.715c0.621 2.298 3.017 3.203 5.202 4.010 0.070 0.043 0.155 0.069 0.246 0.069 0.126 0 0.241-0.049 0.326-0.129l-0 0c0.089-0.085 0.144-0.204 0.144-0.335 0-0.011-0-0.022-0.001-0.033l0 0.001c-0.010-0.142-0.084-0.266-0.193-0.342l-0.001-0.001c-0.053-0.038-0.117-0.066-0.186-0.078l-0.003-0c-2.353-0.879-4.573-1.699-4.741-4.049-0.005-0.070-0.007-0.152-0.007-0.235 0-0.597 0.135-1.162 0.375-1.667l-0.010 0.023c0.286-0.602 0.698-1.102 1.205-1.482l0.010-0.007c0.328-0.269 0.68-0.508 1.051-0.714-0.011 0.132-0.018 0.286-0.018 0.442s0.007 0.31 0.019 0.462l-0.001-0.020c0.054 0.714 0.251 1.37 0.562 1.957l-0.013-0.027c0.326 0.617 0.752 1.137 1.262 1.559l0.008 0.007c0.358 0.302 0.802 0.612 1.293 0.943 1.134 0.803 2.422 1.699 3.241 2.914 0.511 0.718 0.818 1.614 0.818 2.581 0 0.625-0.128 1.22-0.359 1.76l0.011-0.029h-1.905c-3.926 0-8.438-1.070-9.33-4.070-0.084-0.28-0.132-0.603-0.132-0.936 0-0.339 0.050-0.666 0.142-0.974l-0.006 0.024c0.191-0.639 0.543-1.181 1.010-1.598l0.003-0.003-0.022-0.021zM8.431 21.197l1.439 1.419-1.44 1.419-1.439-1.427 1.439-1.41zM11.732 24.923l-1.19 1.173-1.439-1.419 1.44-1.415 1.249 1.227-0.060 0.434zM8.431 28.177l-1.44-1.419 1.44-1.419 1.439 1.419-1.44 1.419zM7.771 24.685l-1.44 1.419-1.198-1.181-0.051-0.425 1.25-1.227 1.439 1.415zM5.669 26.758l-0.289 0.285-0.073-0.646 0.362 0.361zM5.517 28.211l0.815-0.803 1.582 1.571c0.008 0.032 0.018 0.063 0.030 0.094h-2.327l-0.099-0.863zM10.534 27.408l0.814 0.803-0.099 0.85h-2.392l1.677-1.653zM11.482 27.042l-0.289-0.285 0.366-0.361-0.078 0.646zM11.913 23.33l-0.72-0.722 0.914-0.901-0.194 1.623zM10.53 21.962l-1.366-1.342h2.733l-1.366 1.343zM6.327 21.962l-1.366-1.342h2.732l-1.366 1.343zM10.982 31.036h-5.108c-0.016-0.002-0.028-0.014-0.030-0.030l-0-0-0.121-1.020h5.413l-0.117 1.020c-0.002 0.017-0.017 0.030-0.034 0.030-0 0-0 0-0 0h-0.004zM14.934 16.235h-1.5c-0.013-0.001-0.029-0.002-0.044-0.002-0.122 0-0.233 0.046-0.317 0.121l0-0c-0.094 0.085-0.154 0.207-0.154 0.343v0c0 0 0 0 0 0 0 0.136 0.059 0.258 0.154 0.342l0 0c0.083 0.074 0.193 0.12 0.314 0.12 0.016 0 0.033-0.001 0.049-0.002l-0.002 0h0.534v2.498c-0.001 0.009-0.005 0.016-0.011 0.022l-0 0c-0.006 0.005-0.014 0.008-0.022 0.008-0 0-0.001 0-0.001 0h-11.021c-0 0-0.001 0-0.001 0-0.008 0-0.016-0.003-0.022-0.008l0 0c-0.006-0.005-0.010-0.013-0.011-0.022l-0-0v-2.497h8.537c0.12-0.012 0.226-0.067 0.303-0.15l0-0c0.076-0.082 0.122-0.191 0.122-0.311s-0.046-0.23-0.122-0.312l0 0c-0.077-0.083-0.183-0.138-0.301-0.149l-0.002-0h-9.481c-0.014 0.001-0.031 0.002-0.047 0.002-0.139 0-0.266-0.052-0.362-0.139l0 0c-0.106-0.096-0.173-0.235-0.174-0.388v-0c0-0 0-0 0-0.001 0-0.154 0.067-0.292 0.173-0.387l0-0c0.095-0.086 0.221-0.138 0.36-0.138 0.017 0 0.034 0.001 0.051 0.002l-0.002-0h0.978c0.12-0.012 0.226-0.067 0.303-0.149l0-0c0.075-0.082 0.122-0.191 0.122-0.311s-0.046-0.23-0.122-0.312l0 0c-0.077-0.083-0.182-0.138-0.301-0.15l-0.002-0h-0.862c-0.051-0.253-0.080-0.544-0.080-0.842 0-0.393 0.051-0.775 0.145-1.138l-0.007 0.031c0.174-0.672 0.479-1.257 0.886-1.754l-0.006 0.008c0.302 0.926 1.078 2.192 3.017 3.199 1.823 0.938 4.237 1.419 7.171 1.419h1.724c0.014-0.001 0.031-0.002 0.048-0.002 0.139 0 0.265 0.052 0.361 0.138l-0.001-0c0.106 0.096 0.173 0.235 0.174 0.388v0c0 0 0 0.001 0 0.001 0 0.154-0.067 0.292-0.173 0.387l-0.001 0c-0.095 0.086-0.221 0.138-0.36 0.138-0.017 0-0.034-0.001-0.051-0.002l0.002 0h0.030z"></path>
        </symbol>
        <symbol id="icon-weight" viewBox="0 0 32 32">
            <path d="M14.178 0.547c-3.974 0.589-7.247 2.796-8.452 5.685-0.384 0.913-0.487 1.474-0.487 2.573 0.007 0.812 0.036 1.114 0.163 1.552 0.258 0.862 0.443 1.301 0.827 1.92l0.356 0.574-0.4 0.489c-3.154 3.924-3.501 9.444-0.871 13.793 0.982 1.631 2.586 3.235 4.151 4.169l0.466 0.273 12.743-0.108 0.302-0.165c1.057-0.596 2.548-1.926 3.383-3.004 1.208-1.569 2.064-3.472 2.413-5.546l0.010-0.074c0.118-0.74 0.118-2.933-0.007-3.63-0.377-2.148-1.182-3.988-2.452-5.62-0.244-0.309-0.436-0.568-0.436-0.589 0-0.014 0.133-0.237 0.288-0.489 0.362-0.575 0.687-1.316 0.864-1.962 0.199-0.719 0.199-2.516 0-3.235-0.709-2.551-2.836-4.679-5.843-5.851-0.843-0.331-2.284-0.683-3.214-0.797-0.864-0.101-2.999-0.080-3.804 0.043zM18.676 1.718c3.945 0.769 6.834 3.184 7.365 6.16 0.118 0.668 0.044 1.804-0.155 2.436-0.2 0.619-0.569 1.345-1.004 1.963-0.178 0.252-0.325 0.54-0.325 0.633s0.155 0.338 0.377 0.582c1.846 2.048 2.821 4.614 2.821 7.388-0.007 3.156-1.219 5.923-3.553 8.093-0.399 0.373-0.968 0.841-1.271 1.042l-0.554 0.373-12.211 0.051-0.473-0.302c-1.714-1.114-3.258-2.954-4.115-4.908-1.078-2.472-1.189-5.34-0.31-7.913 0.466-1.337 1.086-2.429 2.031-3.58 0.385-0.46 0.562-0.733 0.562-0.862 0-0.108-0.192-0.46-0.444-0.827-0.886-1.287-1.248-2.717-1.034-4.068 0.222-1.365 0.842-2.487 1.987-3.601 1.493-1.444 3.576-2.4 6.021-2.76 1.012-0.151 3.25-0.093 4.284 0.1z"></path>
            <path d="M14.509 2.983c-3.028 0.496-5.4 2.178-6.175 4.385-0.178 0.496-0.207 0.69-0.207 1.401s0.029 0.907 0.207 1.402c0.11 0.316 0.317 0.756 0.458 0.978 0.384 0.618 0.554 0.64 1.316 0.18 1.094-0.674 2.368-1.19 3.727-1.474l0.078-0.014c0.916-0.187 2.674-0.258 3.671-0.143 1.558 0.18 3.25 0.74 4.602 1.538 0.384 0.222 0.776 0.409 0.871 0.409 0.562 0 1.278-1.617 1.278-2.875 0-2.796-2.674-5.189-6.463-5.786-0.805-0.129-2.587-0.129-3.362 0zM18.166 4.133c1.271 0.273 2.437 0.791 3.317 1.474 1.182 0.913 1.817 2.185 1.713 3.413-0.036 0.489-0.221 1.15-0.332 1.222-0.030 0.014-0.444-0.158-0.916-0.388-0.926-0.454-2.004-0.832-3.131-1.081l-0.097-0.018c-0.687-0.143-0.975-0.165-2.511-0.158-1.515 0-1.832 0.022-2.489 0.158-1.179 0.249-2.221 0.616-3.196 1.099l0.078-0.035c-1.1 0.524-1.042 0.532-1.241-0.116-0.258-0.84-0.096-1.955 0.406-2.796 0.267-0.445 0.997-1.186 1.529-1.552 1.012-0.698 1.899-1.013 3.804-1.359 0.391-0.071 2.564 0.029 3.066 0.137zM16.963 13.404c-0.207 0.26-0.207 0.504 0.007 0.712 0.14 0.137 0.281 0.172 0.791 0.209 1.034 0.075 1.983 0.38 2.815 0.865l-0.031-0.017c0.606 0.359 1.529 1.229 1.943 1.854 0.613 0.898 1.034 2.185 1.034 3.134 0 0.331 0.030 0.431 0.185 0.574 0.236 0.237 0.547 0.237 0.776 0 0.163-0.165 0.169-0.208 0.125-0.912-0.207-3.479-3.184-6.382-6.744-6.578l-0.74-0.043-0.162 0.202z"></path>
        </symbol>
        <symbol id="icon-cow" viewBox="0 0 31 32">
            <path d="M6.002 0.778c-0.254 0.219-0.98 1.732-1.24 2.558-0.31 1.024-0.415 1.792-0.374 2.851 0.056 1.514 0.437 2.662 1.275 3.861 0.219 0.315 0.395 0.585 0.395 0.607 0 0.015-0.134 0.029-0.303 0.029-0.726 0-2.086 0.241-3.128 0.555-1.655 0.497-2.627 1.367-2.627 2.34 0 0.343 0.31 0.928 0.641 1.228 0.641 0.578 2.043 1.126 3.55 1.389 0.521 0.095 2.071 0.256 2.416 0.264 0.063 0 0.085 0.336 0.085 1.44 0 0.951 0.035 1.689 0.106 2.142 0.253 1.623 1.042 3.342 2.084 4.555l0.36 0.417-0.24 0.387c-0.352 0.548-0.486 0.965-0.528 1.586-0.106 1.492 0.823 2.815 2.621 3.744 3.422 1.776 8.741 1.082 10.735-1.404 0.972-1.214 1.085-2.603 0.317-3.861l-0.24-0.388 0.43-0.519c0.803-0.965 1.324-1.93 1.718-3.152 0.331-1.038 0.458-2.040 0.458-3.626 0-0.724 0.021-1.323 0.056-1.323 0.324-0.008 1.881-0.176 2.374-0.264 1.514-0.263 2.889-0.804 3.55-1.389 0.331-0.3 0.641-0.885 0.641-1.228 0-1.083-1.098-1.96-3.142-2.486-0.669-0.176-1.93-0.387-2.543-0.424l-0.289-0.023 0.317-0.438c0.394-0.534 0.887-1.571 1.078-2.252 0.535-1.967 0.204-4.255-0.944-6.441-0.48-0.905-0.811-1.117-1.198-0.759-0.148 0.138-0.212 0.329-0.352 1.016-0.437 2.186-1.247 3.92-2.43 5.199l-0.521 0.571h-11.144l-0.465-0.505c-1.155-1.271-1.994-3.070-2.43-5.264-0.141-0.688-0.204-0.877-0.352-1.016-0.233-0.212-0.458-0.205-0.718 0.022zM6.903 5.114c0.374 0.819 0.839 1.586 1.387 2.295l0.437 0.563-0.457 0.344c-0.43 0.329-0.831 0.797-1.142 1.33l-0.133 0.242-0.338-0.461c-1.155-1.594-1.444-3.546-0.831-5.571 0.296-0.98 0.289-0.973 0.556-0.125 0.127 0.409 0.367 1.031 0.521 1.382zM25.238 3.571c0.255 0.709 0.403 1.526 0.403 2.378 0 0.030-0 0.060-0.001 0.090l0-0.005c0 1.331-0.352 2.456-1.091 3.465l-0.331 0.453-0.247-0.417c-0.319-0.54-0.732-0.991-1.22-1.344l-0.013-0.009c-0.19-0.124-0.337-0.248-0.337-0.263 0-0.022 0.133-0.19 0.303-0.373 0.782-0.87 1.62-2.435 2.036-3.779 0.126-0.418 0.253-0.761 0.274-0.761s0.127 0.256 0.225 0.562zM21.64 8.916c0.782 0.329 1.528 1.271 1.648 2.069 0.063 0.439 0.211 0.717 0.401 0.761 0.085 0.015 0.669 0.066 1.296 0.109 2.225 0.147 3.979 0.622 4.727 1.272 0.345 0.307 0.31 0.563-0.105 0.878-0.831 0.629-2.627 1.104-4.459 1.185-1.212 0.051-1.465 0.086-1.628 0.255-0.119 0.125-0.133 0.256-0.133 1.579 0 1.792-0.092 2.823-0.317 3.656-0.317 1.133-0.944 2.34-1.676 3.196l-0.303 0.351-0.627-0.373c-0.669-0.415-1.445-0.74-2.272-0.933l-0.053-0.010c-2.67-0.636-5.622-0.248-7.607 1.002l-0.458 0.292-0.289-0.343c-0.394-0.461-1.014-1.448-1.261-2.003-0.542-1.258-0.704-2.282-0.704-4.534 0-2.186 0.112-2.026-1.507-2.113-2.071-0.11-3.65-0.483-4.643-1.111-0.733-0.468-0.612-0.885 0.409-1.375 0.979-0.476 2.324-0.76 4.191-0.877 1.451-0.095 1.486-0.117 1.62-0.819 0.197-1.060 0.979-1.937 1.966-2.216 0.246-0.073 1.627-0.087 5.853-0.080l5.53 0.014 0.401 0.169zM17.68 24.051c1.726 0.424 3.015 1.213 3.572 2.193 0.134 0.227 0.19 0.461 0.218 0.819 0.029 0.446 0.008 0.555-0.162 0.921-0.782 1.661-3.656 2.756-6.579 2.508-3.515-0.292-5.826-2.252-4.917-4.175 0.493-1.038 2.162-2.032 3.923-2.326 0.289-0.043 0.578-0.095 0.634-0.11s0.691-0.015 1.41 0c0.978 0.023 1.45 0.066 1.901 0.169z"></path>
            <path d="M10.693 12.579c-0.437 0.147-0.733 0.337-1.127 0.732-0.346 0.329-0.374 0.716-0.085 0.95 0.268 0.219 0.521 0.19 0.845-0.095 0.409-0.358 0.726-0.504 1.121-0.504 0.394-0.008 0.697 0.131 1.119 0.504 0.324 0.285 0.578 0.314 0.846 0.095 0.141-0.117 0.183-0.212 0.183-0.432 0-0.227-0.049-0.329-0.297-0.578-0.697-0.701-1.732-0.972-2.606-0.673zM18.906 12.572c-0.45 0.168-1.028 0.548-1.26 0.833-0.226 0.278-0.233 0.592 0 0.827 0.232 0.248 0.514 0.233 0.852-0.044 0.831-0.688 1.451-0.709 2.219-0.073 0.197 0.169 0.422 0.3 0.493 0.3 0.345 0 0.627-0.307 0.627-0.673 0-0.233-0.585-0.775-1.113-1.031-0.585-0.285-1.282-0.336-1.817-0.138zM11.715 26.106c-0.204 0.197-0.275 0.483-0.169 0.709 0.078 0.183 0.197 0.256 0.683 0.387 0.219 0.058 0.31 0.131 0.387 0.314 0.099 0.242 0.106 0.242 0.649 0.264l0.542 0.022v-0.205c-0.007-0.292-0.169-0.716-0.381-1.008-0.246-0.337-0.676-0.556-1.162-0.6-0.331-0.029-0.415-0.015-0.549 0.118zM18.442 26.054c-0.352 0.095-0.859 0.571-1 0.943-0.070 0.196-0.118 0.423-0.134 0.658l-0 0.008c-0.014 0.314 0.014 0.387 0.183 0.541 0.415 0.365 0.965 0.080 0.965-0.505 0-0.285 0.211-0.483 0.585-0.555 0.394-0.073 0.535-0.233 0.542-0.607 0-0.489-0.437-0.68-1.142-0.483z"></path>
        </symbol>
        <symbol id="icon-github" viewBox="0 0 32 32">
            <path d="M16 0c-8.789 0-16 7.211-16 16 0 7.499 5.262 14.312 12.25 16v-5.293c-0.276 0.070-0.593 0.109-0.919 0.109-0.398 0-0.781-0.059-1.143-0.169l0.028 0.007c-0.946-0.278-1.714-0.909-2.285-1.869-0.363-0.613-1.008-1.28-1.68-1.23l-0.165-1.867c1.454-0.125 2.71 0.886 3.456 2.139 0.333 0.558 0.715 0.885 1.205 1.029 0.472 0.141 0.981 0.074 1.573-0.136 0.149-1.186 0.693-1.629 1.104-2.256-4.168-0.621-5.829-2.832-6.488-4.576-0.874-2.318-0.405-5.213 1.139-7.043 0.030-0.035 0.085-0.128 0.064-0.192-0.709-2.141 0.154-3.91 0.186-4.098 0.818 0.24 0.95-0.243 3.552 1.336l0.448 0.27c0.189 0.112 0.128 0.048 0.317 0.032 1.003-0.282 2.157-0.452 3.349-0.469l0.010-0c1.136 0.014 2.272 0.176 3.403 0.483l0.146 0.016c-0.013-0.003 0.040-0.010 0.128-0.062 3.248-1.968 3.131-1.325 4.003-1.608 0.032 0.189 0.882 1.987 0.182 4.099-0.096 0.291 2.816 2.957 1.202 7.235-0.659 1.744-2.32 3.957-6.486 4.578 0.534 0.816 1.176 1.248 1.173 2.928v6.606c6.986-1.688 12.25-8.501 12.25-16 0-8.789-7.211-16-16-16z"></path>
        </symbol>
        <symbol id="icon-telegram" viewBox="0 0 44 32">
            <path d="M17.346 21.048l-0.676 8.86c0.966 0 1.384-0.388 1.886-0.852l4.528-4.040 9.38 6.414c1.72 0.894 2.932 0.422 3.396-1.478l6.16-26.932c0.546-2.372-0.92-3.3-2.596-2.72l-36.194 12.934c-2.47 0.896-2.432 2.18-0.42 2.766l9.254 2.686 21.494-12.552c1.010-0.626 1.93-0.28 1.174 0.346l-17.386 14.57z"></path>
        </symbol>
        <symbol id="icon-facebook" viewBox="0 0 16 32">
            <path d="M14.143 15.971h-4.033v14.865h-6.112v-14.865h-2.906v-5.222h2.906v-3.382c0-2.417 1.142-6.204 6.167-6.204l4.527 0.019v5.072h-3.284c-0.538 0-1.297 0.272-1.297 1.425v3.073h4.567l-0.534 5.219z"></path>
        </symbol>
        <symbol id="icon-mobile-open" viewBox="0 0 32 32">
            <path d="M26.733 14.667h-21.466c-0.7 0-1.267 0.567-1.267 1.266v0.134c0 0.7 0.567 1.266 1.267 1.266h21.466c0.7 0 1.267-0.567 1.267-1.266v-0.134c0-0.7-0.567-1.266-1.267-1.266zM26.733 21.333h-21.466c-0.7 0-1.267 0.567-1.267 1.267v0.133c0 0.7 0.567 1.267 1.267 1.267h21.466c0.7 0 1.267-0.567 1.267-1.267v-0.133c0-0.7-0.567-1.267-1.267-1.267zM26.733 8h-21.466c-0.7 0-1.267 0.567-1.267 1.267v0.133c0 0.7 0.567 1.267 1.267 1.267h21.466c0.7 0 1.267-0.567 1.267-1.267v-0.133c0-0.7-0.567-1.267-1.267-1.267z"></path>
        </symbol>
        <symbol id="icon-arrow" viewBox="0 0 82 32">
            <path d="M81.414 17.414c0.362-0.362 0.586-0.862 0.586-1.414s-0.224-1.052-0.586-1.414l-12.728-12.728c-0.364-0.377-0.874-0.611-1.439-0.611-1.105 0-2 0.895-2 2 0 0.565 0.234 1.074 0.61 1.438l0.001 0.001 11.314 11.314-11.314 11.314c-0.347 0.359-0.561 0.849-0.561 1.389 0 1.105 0.895 2 2 2 0.54 0 1.030-0.214 1.39-0.562l-0.001 0.001 12.728-12.728zM0 18h80v-4h-80v4z"></path>
        </symbol>
        <symbol id="icon-close" viewBox="0 0 32 32">
            <path d="M18.149 16l12.631-12.633c0.224-0.264 0.36-0.608 0.36-0.984 0-0.842-0.683-1.525-1.525-1.525-0.376 0-0.721 0.136-0.987 0.362l0.002-0.002-12.631 12.633-12.633-12.647c-0.281-0.308-0.684-0.501-1.133-0.501-0.846 0-1.531 0.686-1.531 1.531 0 0.448 0.192 0.85 0.498 1.13l0.001 0.001 12.649 12.633-12.649 12.633c-0.331 0.281-0.54 0.698-0.54 1.164 0 0.842 0.683 1.525 1.525 1.525 0.466 0 0.883-0.209 1.162-0.538l0.002-0.002 12.649-12.633 12.633 12.633c0.264 0.224 0.608 0.36 0.984 0.36 0.842 0 1.525-0.683 1.525-1.525 0-0.376-0.136-0.721-0.362-0.987l0.002 0.002-12.633-12.633z"></path>
        </symbol>
        <symbol id="icon-button-arrow" viewBox="0 0 32 32">
            <path d="M10.587 3.272c-0.361 0.362-0.585 0.861-0.585 1.413s0.223 1.051 0.585 1.413l9.899 9.901-9.899 9.899c-0.333 0.356-0.537 0.836-0.537 1.363 0 1.105 0.895 2 2 2 0.527 0 1.007-0.204 1.365-0.538l-0.001 0.001 11.315-11.312c0.361-0.362 0.585-0.861 0.585-1.413s-0.224-1.052-0.585-1.413l-11.315-11.315c-0.362-0.361-0.861-0.585-1.413-0.585s-1.052 0.224-1.413 0.585l0-0z"></path>
        </symbol>
        <symbol id="icon-logo" viewBox="0 0 34 32">
            <path d="M17.413 14.169c1.635-4.384-1.751-6.784-3.995-8.362-.429-.322-.858-.623-1.206-.899-.621-.518-1.079-1.201-1.318-1.969s-.251-1.587-.033-2.361a.45.45 0 0 0-.133-.457.47.47 0 0 0-.472-.094 7.584 7.584 0 0 0-2.081 1.225c-.598.456-1.083 1.041-1.417 1.711s-.508 1.406-.51 2.152c-.423.33-.797.716-1.111 1.149a4.178 4.178 0 0 0-.819 2.693c-.687.624-1.199 1.413-1.486 2.291s-.338 1.814-.149 2.717c-.273.163-.485.411-.602.704s-.134.617-.047.921c.087.304.272.571.527.761s.567.291.886.289h.03v2.493c0 .253.102.496.283.675s.427.279.683.279h.751L6.417 30.56c.025.233.137.449.314.605s.406.243.643.243h5.089c.237-.001.466-.087.644-.244s.29-.372.317-.605l1.223-10.473h.751c.256 0 .502-.1.683-.279s.283-.422.283-.675v-2.493h.03c.388 0 .76-.152 1.035-.423s.428-.639.428-1.022a1.409 1.409 0 0 0-.429-1.03l-.013.004zM6.399 6.214c.618 2.294 3.003 3.197 5.179 4.003a.473.473 0 0 0 .568-.059.458.458 0 0 0-.051-.71.477.477 0 0 0-.187-.079c-2.343-.878-4.552-1.696-4.72-4.041-.039-.645.083-1.289.356-1.875s.689-1.097 1.21-1.487a6.97 6.97 0 0 1 1.047-.712 5.411 5.411 0 0 0 0 .882c.05.672.236 1.327.547 1.927s.741 1.131 1.264 1.563c.356.301.798.611 1.287.941 1.128.801 2.411 1.696 3.226 2.909a4.49 4.49 0 0 1 .467 4.304h-1.896c-3.909 0-8.401-1.069-9.289-4.062-.176-.616-.175-1.268.004-1.883s.528-1.169 1.008-1.598l-.021-.021zm3.518 14.455 1.433 1.416-1.433 1.416-1.433-1.425 1.433-1.408zm3.287 3.719-1.184 1.17-1.433-1.416 1.433-1.412 1.244 1.225-.06.433zm-3.287 3.248L8.484 26.22l1.433-1.416 1.433 1.416-1.433 1.416zm-.656-3.486-1.433 1.416-1.193-1.179-.051-.424 1.244-1.225 1.433 1.412zm-2.094 2.069-.287.284-.073-.644.36.36zm-.15 1.451.811-.801 1.575 1.569a.72.72 0 0 0 .03.093H7.116l-.099-.861zm4.994-.802.811.801-.099.848h-2.381l1.669-1.649zm.944-.364-.287-.284.365-.36-.077.644zm.429-3.706-.716-.721.91-.899-.193 1.62zm-1.377-1.366-1.36-1.34h2.72l-1.36 1.34zm-4.184 0-1.36-1.34h2.72l-1.36 1.34zm4.634 9.057H7.373c-.008-.001-.015-.004-.02-.01s-.009-.012-.01-.02l-.12-1.018h5.389l-.116 1.018c-.001.008-.005.016-.011.021s-.014.008-.023.008h-.004zm3.934-14.773h-1.493a.48.48 0 0 0-.359.118.456.456 0 0 0-.113.529.456.456 0 0 0 .28.251c.062.02.127.028.192.021h.532v2.493c-.001.008-.005.016-.011.021s-.014.008-.023.008H4.425c-.008 0-.017-.003-.023-.008s-.01-.013-.011-.021v-2.493h8.5a.468.468 0 0 0 .423-.46.456.456 0 0 0-.122-.311.47.47 0 0 0-.301-.149H3.452a.536.536 0 0 1-.535-.311.518.518 0 0 1 .128-.6.537.537 0 0 1 .407-.135h.974a.468.468 0 0 0 .423-.46c0-.115-.043-.226-.122-.311s-.186-.138-.301-.149h-.858c-.123-.645-.103-1.309.059-1.946s.461-1.232.877-1.743c.3.924 1.073 2.188 3.003 3.193 1.815.937 4.218 1.416 7.139 1.416h1.716a.536.536 0 0 1 .535.311.518.518 0 0 1-.128.6.537.537 0 0 1-.407.135h.03zM19.817 27.915l-.343.527.007.004.337-.531zm3.697.178.629-.014-.016-.728-.718.122.105.62zm.043 1.935.16.608.48-.126-.011-.496-.629.014zm-4.852.092.141-.613-.004-.001-.137.614zm-2.395-1.069.407-.48-.001-.001-.406.48zm-.866-1.965.629.003v-.003h-.629zm.301-1.376-.564-.278v.001l.565.277zm1.929-1.646.223.588.002-.001-.225-.587zm6.178-.159.627.049.041-.531-.517-.128-.151.61zm-.154 1.971-.117.618.69.131.055-.7-.627-.049zm-1.676-.807c-.944 0-1.737.101-2.317.356a1.896 1.896 0 0 0-.764.574c-.203.268-.3.58-.3.909h1.258c0-.074.018-.115.044-.149.033-.043.106-.111.268-.182.338-.148.92-.249 1.81-.249V25.07zm-3.38 1.839c0 .647.29 1.181.832 1.534l.687-1.054a.51.51 0 0 1-.261-.48h-1.258zm.839 1.538c.514.325 1.191.448 1.952.448v-1.258c-.656 0-1.056-.111-1.279-.253l-.673 1.063zm1.951.448c.746 0 1.476-.06 2.187-.181l-.21-1.24c-.639.108-1.298.163-1.977.163v1.258zm1.453-.787.043 1.934 1.257-.028-.043-1.934-1.257.028zm.512 1.313a9.355 9.355 0 0 1-2.383.286v1.258c.964 0 1.866-.108 2.703-.328l-.32-1.216zm-2.382.286c-.888 0-1.607-.07-2.168-.199l-.282 1.226c.684.157 1.504.231 2.45.231v-1.258zm-2.172-.2c-.6-.134-1.034-.277-1.323-.418l-.552 1.13c.415.203.956.371 1.6.515l.275-1.227zm-1.323-.418a3.836 3.836 0 0 1-.803-.516l-.814.959c.314.267.67.495 1.064.687l.552-1.13zm-.804-.517c-.427-.361-.646-.833-.643-1.482l-1.258-.006c-.005.989.353 1.827 1.089 2.449l.812-.961zm-.643-1.485c0-.423.083-.785.237-1.099l-1.129-.553a3.718 3.718 0 0 0-.365 1.652h1.258zm.237-1.098c.286-.582.791-1.033 1.587-1.336l-.446-1.176c-1.038.394-1.819 1.04-2.27 1.956l1.129.555zm1.589-1.336c.837-.321 1.77-.486 2.808-.486v-1.258c-1.173 0-2.262.187-3.259.57l.451 1.174zm2.809-.487c1.059 0 2.056.118 2.993.35l.303-1.221a13.646 13.646 0 0 0-3.296-.387v1.258zm2.517-.309-.154 1.971 1.254.098.154-1.971-1.254-.098zm.591 1.402a9.734 9.734 0 0 0-1.794-.189v1.258c.442 0 .961.054 1.56.167l.234-1.236zm6.136 1.005-.003.629.639.004-.007-.639-.629.007zm-.271-.817-.428.461.005.005.422-.466zm-1.566.062.436.454.005-.005-.44-.449zm-.38.743-.62-.102-.119.727.736.004.003-.629zm4.624 3.353.38.501.226-.171.021-.283-.627-.047zm-1.357.504-.135-.614-.004.001.139.613zm-4.717-.172-.214.591.005.002.209-.593zm-1.074-.571-.39.493.008.006.383-.499zm-.719-.903-.564.279.001.003.563-.281zm.737-3.814.418.47-.419-.469zm5.748-.682.252-.576-.006-.003-.246.579zm1.444 1.327-.566.275.002.004.564-.278zm.245 1.099.627.046.002-.023v-.023h-.629zm-.073 1.013-.003.629.588.003.043-.586-.627-.046zm-4.981-.024.003-.629-.82-.004.209.793.608-.16zm.712.878-.309.547.003.001.307-.549zm3.82-.215v-.629h-.126l-.116.048.242.581zm.332 0 .627.047.051-.676h-.678v.629zm-1.895-1.788c-.005-.455-.109-.943-.477-1.276l-.845.932c-.007-.007.007.001.025.056.019.058.037.154.039.302l1.258-.013zm-.472-1.271c-.33-.306-.763-.408-1.189-.408v1.258c.245 0 .32.059.334.071l.856-.922zm-1.189-.407c-.468 0-.904.147-1.245.481l.88.898c.069-.067.169-.121.364-.121v-1.258zm-1.24.476c-.31.297-.496.671-.566 1.095l1.241.204a.66.66 0 0 1 .196-.391l-.871-.907zm.051 1.826 2.217.012.007-1.258-2.217-.012-.007 1.258zm4.248 2.223c-.138.105-.474.25-1.113.391l.27 1.228c.664-.146 1.232-.336 1.602-.617l-.76-1.002zm-1.116.391a7.95 7.95 0 0 1-1.759.206v1.258c.665 0 1.344-.08 2.037-.237l-.278-1.227zm-1.759.206c-.593 0-1.081-.028-1.47-.08l-.168 1.247c.462.062 1.01.092 1.638.092v-1.258zm-1.47-.081a5.637 5.637 0 0 1-1.14-.277l-.419 1.186c.457.161.921.274 1.391.337l.168-1.247zm-1.134-.274a3.328 3.328 0 0 1-.906-.479l-.765.998c.358.275.775.494 1.243.663l.429-1.182zm-.899-.474a2.003 2.003 0 0 1-.546-.691l-1.125.563c.221.443.517.819.891 1.115l.781-.986zm-.545-.688c-.132-.268-.211-.612-.211-1.054h-1.258c0 .59.105 1.134.342 1.611l1.127-.558zm-.212-1.054c0-.442.08-.833.231-1.181l-1.154-.501a4.184 4.184 0 0 0-.334 1.681h1.258zm.231-1.181c.159-.365.353-.636.572-.831l-.836-.939a3.601 3.601 0 0 0-.89 1.269l1.154.501zm.572-.831c.676-.603 1.707-.952 3.193-.952v-1.258c-1.667 0-3.043.392-4.03 1.271l.837.939zm3.193-.952a4.79 4.79 0 0 1 1.892.38l.491-1.158a6.05 6.05 0 0 0-2.383-.48v1.258zm1.886.378c.556.243.916.587 1.129 1.025l1.131-.55c-.36-.741-.963-1.281-1.757-1.628l-.503 1.153zm1.131 1.028c.117.238.181.508.181.821h1.258c0-.489-.101-.952-.311-1.378l-1.128.557zm.182.775-.074 1.013 1.254.091.074-1.013-1.254-.091zm.557.431-4.981-.025-.006 1.258 4.981.025.006-1.258zm-5.592.764c.147.558.507.98 1.011 1.265l.619-1.095c-.249-.141-.364-.303-.414-.491l-1.216.321zm1.013 1.267c.51.285 1.148.399 1.861.399v-1.258c-.597 0-.995-.099-1.247-.239l-.614 1.098zm1.861.399c.765 0 1.605-.207 2.508-.583l-.483-1.161c-.809.337-1.479.486-2.024.486v1.258zm2.266-.534h.332v-1.258h-.332v1.258zm-.295-.676-.117 1.56 1.254.094.117-1.56-1.254-.094z"/>
        </symbol>
    </defs>
</svg>